<?xml version="1.0" encoding="UTF-8" standalone="no"?>
<!DOCTYPE svg PUBLIC "-//W3C//DTD SVG 1.1//EN" "http://www.w3.org/Graphics/SVG/1.1/DTD/svg11.dtd">
<svg width="100%" height="100%" viewBox="0 0 500 500" version="1.1" xmlns="http://www.w3.org/2000/svg" xmlns:xlink="http://www.w3.org/1999/xlink" xml:space="preserve" xmlns:serif="http://www.serif.com/" style="fill-rule:evenodd;clip-rule:evenodd;stroke-linejoin:round;stroke-miterlimit:2;">
    <g>
        <g transform="matrix(1,0,0,1,7.92631,0)">
            <circle cx="242.074" cy="250" r="226.328" style="fill:rgb(48,161,161);"/>
        </g>
        <g transform="matrix(0.857075,0,0,0.857075,42.5246,35.7312)">
            <circle cx="242.074" cy="250" r="226.328" style="fill:white;"/>
        </g>
        <g transform="matrix(0.313772,0,0,0.313772,174.044,96.15)">
            <circle cx="242.074" cy="250" r="226.328" style="fill:rgb(48,161,161);"/>
        </g>
        <g transform="matrix(0.475627,0,0,0.483199,134.863,193.896)">
            <path d="M242.074,23.672C366.988,23.672 468.587,202.228 468.402,327.142C468.323,380.122 468.323,380.122 242.074,380.122C15.745,380.122 15.745,380.122 15.746,327.142C15.746,202.228 117.16,23.672 242.074,23.672Z" style="fill:rgb(48,161,161);"/>
        </g>
        <g transform="matrix(0.37151,0,0,0.37151,160.067,81.7155)">
            <circle cx="242.074" cy="250" r="226.328" style="fill:white;"/>
        </g>
        <g transform="matrix(0.313772,0,0,0.313772,174.044,96.15)">
            <circle cx="242.074" cy="250" r="226.328" style="fill:rgb(48,161,161);"/>
        </g>
    </g>
</svg>
